<mxfile host="app.diagrams.net" agent="Mozilla/5.0 (Windows NT 10.0; Win64; x64) AppleWebKit/537.36 (KHTML, like Gecko) Chrome/134.0.0.0 Safari/537.36" version="26.1.1">
  <diagram name="Page-1" id="wErXG-4XayQ7Bu8PJ57t">
    <mxGraphModel dx="880" dy="460" grid="1" gridSize="10" guides="1" tooltips="1" connect="1" arrows="1" fold="1" page="1" pageScale="1" pageWidth="2339" pageHeight="3300" math="0" shadow="0">
      <root>
        <mxCell id="0" />
        <mxCell id="1" parent="0" />
        <mxCell id="SKQPWG4tQUfb8fhLAb4P-1" value="" style="rounded=0;whiteSpace=wrap;html=1;strokeColor=default;dashed=1;fillColor=none;" vertex="1" parent="1">
          <mxGeometry x="80" y="80" width="120" height="370" as="geometry" />
        </mxCell>
        <mxCell id="SKQPWG4tQUfb8fhLAb4P-2" value="Sources" style="rounded=0;whiteSpace=wrap;html=1;strokeColor=none;" vertex="1" parent="1">
          <mxGeometry x="100" y="60" width="80" height="30" as="geometry" />
        </mxCell>
        <mxCell id="SKQPWG4tQUfb8fhLAb4P-13" style="edgeStyle=orthogonalEdgeStyle;rounded=0;orthogonalLoop=1;jettySize=auto;html=1;" edge="1" parent="1" source="SKQPWG4tQUfb8fhLAb4P-3">
          <mxGeometry relative="1" as="geometry">
            <mxPoint x="250" y="205" as="targetPoint" />
          </mxGeometry>
        </mxCell>
        <mxCell id="SKQPWG4tQUfb8fhLAb4P-3" value="CRM" style="image;aspect=fixed;html=1;points=[];align=center;fontSize=12;image=img/lib/azure2/general/Folder_Blank.svg;" vertex="1" parent="1">
          <mxGeometry x="115.36" y="185" width="49.29" height="40" as="geometry" />
        </mxCell>
        <mxCell id="SKQPWG4tQUfb8fhLAb4P-22" style="edgeStyle=orthogonalEdgeStyle;rounded=0;orthogonalLoop=1;jettySize=auto;html=1;entryX=-0.014;entryY=0.815;entryDx=0;entryDy=0;entryPerimeter=0;" edge="1" parent="1" source="SKQPWG4tQUfb8fhLAb4P-4" target="SKQPWG4tQUfb8fhLAb4P-5">
          <mxGeometry relative="1" as="geometry" />
        </mxCell>
        <mxCell id="SKQPWG4tQUfb8fhLAb4P-4" value="ERP" style="image;aspect=fixed;html=1;points=[];align=center;fontSize=12;image=img/lib/azure2/general/Folder_Blank.svg;" vertex="1" parent="1">
          <mxGeometry x="115.36" y="320" width="49.29" height="40" as="geometry" />
        </mxCell>
        <mxCell id="SKQPWG4tQUfb8fhLAb4P-5" value="" style="rounded=1;whiteSpace=wrap;html=1;" vertex="1" parent="1">
          <mxGeometry x="260" y="120" width="140" height="330" as="geometry" />
        </mxCell>
        <mxCell id="SKQPWG4tQUfb8fhLAb4P-6" value="Bronze Layer" style="rounded=1;whiteSpace=wrap;html=1;" vertex="1" parent="1">
          <mxGeometry x="260" y="80" width="140" height="30" as="geometry" />
        </mxCell>
        <mxCell id="SKQPWG4tQUfb8fhLAb4P-7" value="crm_sales_detail" style="rounded=1;whiteSpace=wrap;html=1;" vertex="1" parent="1">
          <mxGeometry x="270" y="150" width="120" height="30" as="geometry" />
        </mxCell>
        <mxCell id="SKQPWG4tQUfb8fhLAb4P-8" value="crm_cust_info" style="rounded=1;whiteSpace=wrap;html=1;" vertex="1" parent="1">
          <mxGeometry x="270" y="190" width="120" height="30" as="geometry" />
        </mxCell>
        <mxCell id="SKQPWG4tQUfb8fhLAb4P-9" value="crm_prd_info" style="rounded=1;whiteSpace=wrap;html=1;" vertex="1" parent="1">
          <mxGeometry x="270" y="230" width="120" height="30" as="geometry" />
        </mxCell>
        <mxCell id="SKQPWG4tQUfb8fhLAb4P-14" style="edgeStyle=orthogonalEdgeStyle;rounded=0;orthogonalLoop=1;jettySize=auto;html=1;entryX=0.029;entryY=0.403;entryDx=0;entryDy=0;entryPerimeter=0;" edge="1" parent="1" source="SKQPWG4tQUfb8fhLAb4P-3" target="SKQPWG4tQUfb8fhLAb4P-5">
          <mxGeometry relative="1" as="geometry" />
        </mxCell>
        <mxCell id="SKQPWG4tQUfb8fhLAb4P-16" style="edgeStyle=orthogonalEdgeStyle;rounded=0;orthogonalLoop=1;jettySize=auto;html=1;entryX=0.021;entryY=0.136;entryDx=0;entryDy=0;entryPerimeter=0;" edge="1" parent="1" source="SKQPWG4tQUfb8fhLAb4P-3" target="SKQPWG4tQUfb8fhLAb4P-5">
          <mxGeometry relative="1" as="geometry" />
        </mxCell>
        <mxCell id="SKQPWG4tQUfb8fhLAb4P-17" value="crm_sales_detail" style="rounded=1;whiteSpace=wrap;html=1;" vertex="1" parent="1">
          <mxGeometry x="270" y="290" width="120" height="30" as="geometry" />
        </mxCell>
        <mxCell id="SKQPWG4tQUfb8fhLAb4P-18" value="crm_cust_info" style="rounded=1;whiteSpace=wrap;html=1;" vertex="1" parent="1">
          <mxGeometry x="270" y="330" width="120" height="30" as="geometry" />
        </mxCell>
        <mxCell id="SKQPWG4tQUfb8fhLAb4P-19" value="crm_prd_info" style="rounded=1;whiteSpace=wrap;html=1;" vertex="1" parent="1">
          <mxGeometry x="270" y="370" width="120" height="30" as="geometry" />
        </mxCell>
        <mxCell id="SKQPWG4tQUfb8fhLAb4P-20" style="edgeStyle=orthogonalEdgeStyle;rounded=0;orthogonalLoop=1;jettySize=auto;html=1;entryX=0.083;entryY=0.333;entryDx=0;entryDy=0;entryPerimeter=0;" edge="1" parent="1" source="SKQPWG4tQUfb8fhLAb4P-4" target="SKQPWG4tQUfb8fhLAb4P-18">
          <mxGeometry relative="1" as="geometry" />
        </mxCell>
        <mxCell id="SKQPWG4tQUfb8fhLAb4P-24" style="edgeStyle=orthogonalEdgeStyle;rounded=0;orthogonalLoop=1;jettySize=auto;html=1;entryX=-0.029;entryY=0.561;entryDx=0;entryDy=0;entryPerimeter=0;" edge="1" parent="1" source="SKQPWG4tQUfb8fhLAb4P-4" target="SKQPWG4tQUfb8fhLAb4P-5">
          <mxGeometry relative="1" as="geometry" />
        </mxCell>
      </root>
    </mxGraphModel>
  </diagram>
</mxfile>
